<svg id="All_glyphs" data-name="All glyphs" xmlns="http://www.w3.org/2000/svg" viewBox="0 0 90 80"><defs><style>.cls-1{fill:#f0d8d9;}</style></defs><title>Монтажная область 2</title><path class="cls-1" d="M3,16.43l37.5,20.14a10.74,10.74,0,0,0,9.06,0L87,16.43c2.44-1.31,4.75-5.43.27-5.43H2.7C-1.78,11,.53,15.12,3,16.43Zm85.09,10L49.53,46.57a8.55,8.55,0,0,1-4.53,1,8.55,8.55,0,0,1-4.53-1L1.94,26.43c-2-1-1.94.18-1.94,1.1V64.21C0,66.3,2.79,69,5,69H85c2.17,0,5-2.7,5-4.79V27.53C90,26.6,90,25.41,88.06,26.43Z"/></svg>