<svg width="61" height="61" viewBox="0 0 61 61" fill="none" xmlns="http://www.w3.org/2000/svg">
<path fill-rule="evenodd" clip-rule="evenodd" d="M31 22C25.0371 22 20 25.2062 20 29.0001C20 29.2764 20.2236 29.5 20.5 29.5C20.7763 29.5 21 29.2764 21 29.0001C21 25.8038 25.6728 23.0001 31 23.0001C31.2763 23.0001 31.5 22.7766 31.5 22.5C31.5 22.2237 31.2763 22 31 22ZM31 17.0002C22.163 17.0002 15 22.3732 15 29.0001C15 33.127 17.7793 36.7657 22.0078 38.9258C22.0078 38.9531 22 38.9708 22 39C22 40.7929 20.6612 42.7229 20.0722 43.7365C20.0733 43.7365 20.0742 43.7365 20.0742 43.7365C20.0273 43.8458 20 43.9667 20 44.0938C20 44.5947 20.4052 45.0001 20.9062 45.0001C21 45.0001 21.165 44.9746 21.1611 44.9875C24.2861 44.4757 27.2304 41.6046 27.914 40.7717C28.913 40.9181 29.9434 41.0001 31 41.0001C39.8359 41.0001 47.0001 35.6271 47.0001 29.0001C47.0001 22.3732 39.8359 17.0002 31 17.0002ZM31 39C30.083 39 29.1425 38.9306 28.2042 38.7932C28.1074 38.7784 28.0097 38.7715 27.914 38.7715C27.3203 38.7715 26.7509 39.0362 26.3682 39.5029C25.9404 40.0243 24.7226 41.1858 23.2832 42.042C23.6728 41.1477 23.9785 40.1438 23.999 39.1105C24.0048 39.0459 24.0078 38.9815 24.0078 38.9258C24.0078 38.1749 23.587 37.4862 22.9179 37.1447C19.212 35.2519 17 32.207 17 29.0001C17 23.4865 23.2802 19 31 19C38.7197 19 45 23.4865 45 29.0001C45 34.5138 38.7197 39 31 39Z" fill="#666D89"/>
<path d="M30.5 2.00003C46.2401 2.00003 59 14.7599 59 30.5001C59 46.2401 46.2401 59 30.5 59C14.7599 59 2.00003 46.2401 2.00003 30.5001C2.00003 14.7599 14.7599 2.00003 30.5 2.00003Z" fill="black" fill-opacity="0.01" stroke="#666D89" stroke-width="2"/>
</svg>
