<svg width="62" height="61" viewBox="0 0 62 61" fill="none" xmlns="http://www.w3.org/2000/svg">
<path fill-rule="evenodd" clip-rule="evenodd" d="M46.8806 26.5568C46.6043 25.7579 45.8934 25.1729 45.0379 25.046L36.7117 23.8076L33.0916 16.2941C32.7117 15.5051 31.8963 15 30.9998 15C30.1043 15 29.2888 15.5051 28.908 16.2941L25.2889 23.8076L16.9617 25.046C16.1062 25.1729 15.3953 25.7579 15.1199 26.5568C14.8445 27.3574 15.0525 28.2393 15.6569 28.8418L21.7586 34.9346L20.3436 43.386C20.2 44.2364 20.5691 45.0909 21.2918 45.5891C21.6893 45.8614 22.1561 46 22.6227 46C23.0066 46 23.3914 45.9064 23.741 45.7197L30.9998 41.8116L38.2595 45.7197C38.6092 45.9064 38.9939 46 39.3767 46C39.8444 46 40.3103 45.8614 40.7088 45.5891C41.4314 45.0909 41.7996 44.2364 41.657 43.386L40.241 34.9346L46.3436 28.8418C46.9479 28.2393 47.1551 27.3574 46.8806 26.5568ZM38.5877 33.3633C38.076 33.8741 37.8436 34.5919 37.9616 35.297L39.3767 43.7491L32.118 39.8418C31.7692 39.6542 31.3846 39.5606 30.9998 39.5606C30.616 39.5606 30.2311 39.6542 29.8826 39.8418L22.6227 43.7491L24.0389 35.297C24.1569 34.5919 23.9246 33.8741 23.4129 33.3633L17.3113 27.2716L25.6375 26.0313C26.3982 25.9182 27.0535 25.4425 27.3807 24.7638L30.9998 17.2511L34.6199 24.7638C34.9471 25.4425 35.6014 25.9182 36.3621 26.0313L44.6893 27.2716L38.5877 33.3633Z" fill="#666D89"/>
<path d="M30.5 2.00003C46.2402 2.00003 59 14.7599 59 30.5001C59 46.2401 46.2402 59 30.5 59C14.7599 59 2 46.2401 2 30.5001C2 14.7599 14.7599 2.00003 30.5 2.00003Z" fill="black" fill-opacity="0.01" stroke="#666D89" stroke-width="2"/>
</svg>
