<svg width="118" height="20" viewBox="0 0 118 20" fill="none" xmlns="http://www.w3.org/2000/svg">
<path d="M11.3163 4.47841C11.2192 4.64844 11.1139 4.77394 11.0006 4.85491C10.8953 4.92778 10.7617 4.96422 10.5998 4.96422C10.4297 4.96422 10.2435 4.90349 10.0411 4.78204C9.84677 4.65249 9.61196 4.5108 9.33667 4.35696C9.06139 4.20312 8.73752 4.06548 8.36507 3.94403C8.00071 3.81448 7.56754 3.74971 7.06554 3.74971C6.61212 3.74971 6.21538 3.80639 5.87532 3.91974C5.53526 4.025 5.24782 4.17479 5.01302 4.36911C4.78631 4.56343 4.61628 4.79823 4.50293 5.07352C4.38957 5.34072 4.33289 5.63625 4.33289 5.96011C4.33289 6.37305 4.44625 6.71716 4.67296 6.99245C4.90776 7.26774 5.21544 7.50254 5.59598 7.69687C5.97653 7.89119 6.40971 8.06527 6.89551 8.2191C7.38131 8.37294 7.87926 8.53892 8.38936 8.71705C8.89945 8.88708 9.3974 9.0895 9.8832 9.32431C10.369 9.55102 10.8022 9.8425 11.1827 10.1988C11.5633 10.5469 11.8669 10.976 12.0936 11.4861C12.3284 11.9962 12.4458 12.6156 12.4458 13.3443C12.4458 14.1378 12.3082 14.8827 12.0329 15.579C11.7657 16.2673 11.369 16.8705 10.8427 17.3887C10.3245 17.8987 9.68888 18.3036 8.93589 18.6032C8.18289 18.8946 7.32059 19.0404 6.34898 19.0404C5.79031 19.0404 5.23973 18.9837 4.69725 18.8704C4.15477 18.7651 3.63253 18.6113 3.13053 18.4088C2.63663 18.2064 2.17107 17.9635 1.73384 17.6801C1.29662 17.3968 0.907976 17.081 0.567913 16.7328L1.52738 15.1661C1.60834 15.0527 1.7136 14.9596 1.84315 14.8868C1.9727 14.8058 2.11034 14.7653 2.25608 14.7653C2.4585 14.7653 2.67711 14.8503 2.91192 15.0204C3.14672 15.1823 3.42606 15.3645 3.74993 15.5669C4.0738 15.7693 4.4503 15.9555 4.87942 16.1256C5.31665 16.2875 5.83889 16.3685 6.44614 16.3685C7.37727 16.3685 8.09787 16.1499 8.60797 15.7126C9.11806 15.2673 9.37311 14.6317 9.37311 13.8058C9.37311 13.3443 9.25571 12.9678 9.0209 12.6764C8.79419 12.3849 8.49057 12.142 8.11002 11.9476C7.72947 11.7452 7.2963 11.5752 6.81049 11.4376C6.32469 11.2999 5.83079 11.1501 5.32879 10.9882C4.82679 10.8263 4.33289 10.6319 3.84709 10.4052C3.36129 10.1785 2.92811 9.88298 2.54756 9.51863C2.16702 9.15428 1.85934 8.70086 1.62454 8.15838C1.39783 7.6078 1.28447 6.93172 1.28447 6.13015C1.28447 5.49051 1.40997 4.86706 1.66097 4.2598C1.92007 3.65255 2.29252 3.11411 2.77832 2.6445C3.26413 2.17489 3.86328 1.79839 4.5758 1.51501C5.28831 1.23162 6.10608 1.08993 7.02911 1.08993C8.06549 1.08993 9.0209 1.25187 9.89535 1.57573C10.7698 1.8996 11.5147 2.35302 12.13 2.93599L11.3163 4.47841Z" fill="white"/>
<path d="M18.5749 18.8461H15.2957V1.28425H18.5749V18.8461Z" fill="white"/>
<path d="M24.2194 1.28425C24.357 1.28425 24.4744 1.29235 24.5716 1.30854C24.6768 1.31664 24.7659 1.34093 24.8388 1.38141C24.9197 1.4138 24.9966 1.46643 25.0695 1.5393C25.1424 1.60407 25.2234 1.69314 25.3124 1.80649L34.5184 13.5629C34.4941 13.2796 34.4739 13.0002 34.4577 12.7249C34.4415 12.4496 34.4334 12.1946 34.4334 11.9598V1.28425H37.3118V18.8461H35.6357C35.3767 18.8461 35.158 18.8056 34.9799 18.7246C34.8099 18.6356 34.6439 18.4898 34.482 18.2874L25.3124 6.59166C25.3367 6.85076 25.3529 7.10985 25.361 7.36895C25.3772 7.61995 25.3853 7.8507 25.3853 8.06122V18.8461H22.5069V1.28425H24.2194Z" fill="white"/>
<path d="M55.6996 17.1458C54.809 17.8016 53.8576 18.2833 52.8455 18.591C51.8415 18.8906 50.7647 19.0404 49.6149 19.0404C48.1818 19.0404 46.8823 18.8177 45.7164 18.3724C44.5585 17.9271 43.5667 17.3077 42.7408 16.5142C41.9231 15.7207 41.2915 14.7734 40.8462 13.6723C40.4009 12.5711 40.1782 11.3687 40.1782 10.0652C40.1782 8.74539 40.3928 7.53493 40.8219 6.43377C41.251 5.33262 41.8583 4.3853 42.6437 3.59182C43.4371 2.79834 44.3966 2.18299 45.522 1.74577C46.6475 1.30854 47.9106 1.08993 49.3113 1.08993C50.0238 1.08993 50.6878 1.14661 51.3031 1.25996C51.9266 1.37332 52.5014 1.5312 53.0277 1.73362C53.5621 1.92794 54.0479 2.1668 54.4851 2.45018C54.9224 2.73357 55.3231 3.04529 55.6875 3.38535L54.7523 4.86706C54.6066 5.10186 54.4163 5.2476 54.1815 5.30428C53.9467 5.35286 53.6917 5.29214 53.4164 5.1221C53.1492 4.96827 52.882 4.81443 52.6148 4.66059C52.3476 4.50675 52.048 4.37316 51.716 4.2598C51.3922 4.14645 51.0238 4.05334 50.6108 3.98046C50.206 3.90759 49.7364 3.87116 49.202 3.87116C48.3357 3.87116 47.5503 4.0169 46.8459 4.30838C46.1495 4.59986 45.5544 5.01685 45.0605 5.55933C44.5666 6.10181 44.1861 6.7536 43.9189 7.51469C43.6517 8.27578 43.5181 9.12594 43.5181 10.0652C43.5181 11.0692 43.6598 11.9679 43.9432 12.7614C44.2347 13.5468 44.6395 14.2147 45.1577 14.7653C45.684 15.3078 46.3155 15.7248 47.0523 16.0163C47.7891 16.2996 48.611 16.4413 49.5178 16.4413C50.1655 16.4413 50.7444 16.3766 51.2545 16.247C51.7646 16.1094 52.2626 15.9231 52.7484 15.6883V12.4942H50.538C50.3275 12.4942 50.1615 12.4375 50.04 12.3241C49.9267 12.2027 49.87 12.057 49.87 11.8869V10.0409H55.6996V17.1458Z" fill="white"/>
<path d="M75.5954 10.0652C75.5954 11.3525 75.3808 12.5468 74.9517 13.648C74.5307 14.741 73.9315 15.6883 73.1542 16.4899C72.3769 17.2915 71.4418 17.919 70.3487 18.3724C69.2557 18.8177 68.0411 19.0404 66.7052 19.0404C65.3773 19.0404 64.1669 18.8177 63.0738 18.3724C61.9807 17.919 61.0415 17.2915 60.2561 16.4899C59.4789 15.6883 58.8756 14.741 58.4465 13.648C58.0174 12.5468 57.8028 11.3525 57.8028 10.0652C57.8028 8.77778 58.0174 7.58756 58.4465 6.4945C58.8756 5.39334 59.4789 4.44198 60.2561 3.6404C61.0415 2.83883 61.9807 2.21538 63.0738 1.77006C64.1669 1.31664 65.3773 1.08993 66.7052 1.08993C67.5958 1.08993 68.4338 1.19519 69.2192 1.4057C70.0046 1.60812 70.7252 1.8996 71.381 2.28015C72.0369 2.6526 72.6239 3.11007 73.1421 3.65255C73.6684 4.18693 74.1137 4.78609 74.478 5.45002C74.8424 6.11395 75.1177 6.83456 75.3039 7.61185C75.4982 8.38914 75.5954 9.20691 75.5954 10.0652ZM72.2555 10.0652C72.2555 9.10165 72.126 8.23935 71.8669 7.47825C71.6078 6.70906 71.2394 6.05728 70.7616 5.52289C70.2839 4.98851 69.701 4.57962 69.0128 4.29624C68.3326 4.01285 67.5634 3.87116 66.7052 3.87116C65.8469 3.87116 65.0737 4.01285 64.3855 4.29624C63.7053 4.57962 63.1224 4.98851 62.6366 5.52289C62.1589 6.05728 61.7905 6.70906 61.5314 7.47825C61.2723 8.23935 61.1427 9.10165 61.1427 10.0652C61.1427 11.0287 61.2723 11.895 61.5314 12.6642C61.7905 13.4253 62.1589 14.073 62.6366 14.6074C63.1224 15.1337 63.7053 15.5386 64.3855 15.8219C65.0737 16.1053 65.8469 16.247 66.7052 16.247C67.5634 16.247 68.3326 16.1053 69.0128 15.8219C69.701 15.5386 70.2839 15.1337 70.7616 14.6074C71.2394 14.073 71.6078 13.4253 71.8669 12.6642C72.126 11.895 72.2555 11.0287 72.2555 10.0652Z" fill="white"/>
<path d="M81.7315 16.1499H88.7514V18.8461H78.4645V1.28425H81.7315V16.1499Z" fill="white"/>
<path d="M107.215 10.0652C107.215 11.3525 107.001 12.5468 106.572 13.648C106.151 14.741 105.551 15.6883 104.774 16.4899C103.997 17.2915 103.062 17.919 101.969 18.3724C100.876 18.8177 99.6611 19.0404 98.3251 19.0404C96.9973 19.0404 95.7868 18.8177 94.6938 18.3724C93.6007 17.919 92.6615 17.2915 91.8761 16.4899C91.0988 15.6883 90.4956 14.741 90.0665 13.648C89.6373 12.5468 89.4228 11.3525 89.4228 10.0652C89.4228 8.77778 89.6373 7.58756 90.0665 6.4945C90.4956 5.39334 91.0988 4.44198 91.8761 3.6404C92.6615 2.83883 93.6007 2.21538 94.6938 1.77006C95.7868 1.31664 96.9973 1.08993 98.3251 1.08993C99.2158 1.08993 100.054 1.19519 100.839 1.4057C101.625 1.60812 102.345 1.8996 103.001 2.28015C103.657 2.6526 104.244 3.11007 104.762 3.65255C105.288 4.18693 105.734 4.78609 106.098 5.45002C106.462 6.11395 106.738 6.83456 106.924 7.61185C107.118 8.38914 107.215 9.20691 107.215 10.0652ZM103.875 10.0652C103.875 9.10165 103.746 8.23935 103.487 7.47825C103.228 6.70906 102.859 6.05728 102.382 5.52289C101.904 4.98851 101.321 4.57962 100.633 4.29624C99.9526 4.01285 99.1834 3.87116 98.3251 3.87116C97.4669 3.87116 96.6936 4.01285 96.0054 4.29624C95.3253 4.57962 94.7423 4.98851 94.2565 5.52289C93.7788 6.05728 93.4104 6.70906 93.1513 7.47825C92.8922 8.23935 92.7627 9.10165 92.7627 10.0652C92.7627 11.0287 92.8922 11.895 93.1513 12.6642C93.4104 13.4253 93.7788 14.073 94.2565 14.6074C94.7423 15.1337 95.3253 15.5386 96.0054 15.8219C96.6936 16.1053 97.4669 16.247 98.3251 16.247C99.1834 16.247 99.9526 16.1053 100.633 15.8219C101.321 15.5386 101.904 15.1337 102.382 14.6074C102.859 14.073 103.228 13.4253 103.487 12.6642C103.746 11.895 103.875 11.0287 103.875 10.0652Z" fill="white"/>
<path d="M112.574 8.68062V6.45806C112.574 6.29613 112.582 6.13824 112.598 5.9844C112.623 5.83057 112.659 5.68482 112.708 5.54718C112.619 5.66053 112.513 5.76174 112.392 5.85081C112.271 5.93987 112.141 6.02894 112.003 6.118L110.084 7.23535L109.368 6.02084L111.299 4.90349C111.445 4.81443 111.586 4.74156 111.724 4.68488C111.87 4.6282 112.02 4.58772 112.173 4.56343C111.874 4.53104 111.582 4.41364 111.299 4.21122L109.368 3.08172L110.072 1.86721L112.003 3.00885C112.141 3.09792 112.271 3.19103 112.392 3.28819C112.522 3.37726 112.631 3.47846 112.72 3.59182C112.663 3.45417 112.623 3.30843 112.598 3.1546C112.582 3.00076 112.574 2.84287 112.574 2.68094V0.434093H114.007V2.65665C114.007 2.82668 113.995 2.99266 113.971 3.1546C113.955 3.30843 113.918 3.45417 113.862 3.59182C113.951 3.47846 114.056 3.37726 114.177 3.28819C114.299 3.19103 114.432 3.09792 114.578 3.00885L116.497 1.89151L117.214 3.10602L115.283 4.21122C115.137 4.30028 114.991 4.3772 114.845 4.44198C114.708 4.49865 114.562 4.53914 114.408 4.56343C114.683 4.61201 114.975 4.72536 115.283 4.90349L117.214 6.03298L116.509 7.24749L114.578 6.118C114.432 6.02894 114.299 5.93987 114.177 5.85081C114.056 5.76174 113.947 5.66053 113.849 5.54718C113.955 5.80628 114.007 6.10585 114.007 6.44592V8.68062H112.574Z" fill="#F06C64"/>
</svg>
